<?xml version="1.0" standalone="no"?>
<!DOCTYPE svg PUBLIC "-//W3C//DTD SVG 20010904//EN"
 "http://www.w3.org/TR/2001/REC-SVG-20010904/DTD/svg10.dtd">
<svg version="1.0" xmlns="http://www.w3.org/2000/svg"
 width="800.000000pt" height="800.000000pt" viewBox="0 0 800.000000 800.000000"
 preserveAspectRatio="xMidYMid meet">

<g transform="translate(0.000000,800.000000) scale(0.100000,-0.100000)"
fill="#000000" stroke="none">
<path d="M6955 6251 c-18 -16 -284 -111 -398 -142 -197 -53 -757 -179 -800
-179 -10 0 -56 24 -100 54 -231 154 -443 153 -867 -4 -47 -17 -132 -41 -189
-54 l-104 -22 -2 -56 c-2 -85 -51 -154 -143 -204 -1 0 4 -50 13 -109 8 -60 15
-109 15 -110 0 -1 -72 -53 -160 -115 -97 -68 -157 -117 -153 -124 4 -6 22 -32
41 -58 38 -53 28 -53 152 2 36 16 126 54 200 85 74 31 164 69 200 85 36 15
121 51 190 80 220 91 290 124 290 137 0 8 -7 30 -15 49 -18 43 -16 43 -184
-22 -63 -24 -116 -42 -119 -40 -10 10 49 94 100 142 85 80 166 114 275 114 66
0 182 -35 166 -50 -4 -5 -44 -22 -88 -38 -162 -60 -156 -56 -141 -94 30 -74
30 -76 -11 -96 -21 -11 -76 -36 -123 -55 -47 -19 -128 -53 -180 -75 -52 -22
-139 -58 -192 -81 -54 -23 -142 -59 -195 -82 -192 -81 -286 -119 -293 -119 -4
0 -24 25 -46 55 -21 30 -45 54 -51 52 -17 -3 -383 -276 -383 -285 1 -4 22 -43
49 -87 44 -75 50 -80 87 -85 48 -7 63 -16 74 -45 8 -21 17 -24 92 -29 187 -13
569 -26 578 -21 6 3 10 15 10 25 0 47 96 102 149 85 36 -11 79 -54 91 -90 13
-41 10 -40 180 -55 69 -6 143 -13 165 -15 22 -3 148 -16 280 -30 132 -14 277
-31 323 -38 l82 -14 19 33 c55 93 200 85 246 -13 57 -120 -69 -246 -185 -186
-44 23 -80 76 -80 119 0 39 15 35 -255 68 -168 21 -720 76 -762 76 -7 0 -13
-7 -13 -16 0 -9 -15 -31 -34 -50 -28 -28 -42 -34 -75 -34 -61 0 -99 24 -122
76 -17 38 -24 44 -50 44 -65 0 -527 20 -577 25 -49 5 -53 3 -62 -19 -19 -50
-86 -61 -125 -21 -29 28 -32 61 -9 94 16 22 14 26 -34 104 -27 45 -53 82 -59
84 -11 4 -298 -225 -451 -360 -96 -84 -113 -103 -107 -121 4 -11 9 -36 12 -53
3 -18 10 -33 15 -33 6 0 76 11 157 24 391 65 844 81 1396 51 450 -25 993 -87
1010 -116 3 -5 -17 -47 -45 -93 -28 -47 -73 -134 -99 -193 -70 -157 -179 -495
-168 -526 2 -6 25 28 52 74 138 237 263 402 383 503 169 144 422 284 649 359
161 54 245 73 405 91 138 16 158 27 248 123 69 73 119 167 146 273 22 83 15
113 -36 145 -60 38 -81 93 -96 260 l-7 80 -19 -74 c-19 -80 -52 -152 -79 -177
-19 -17 -29 -15 -204 38 l-99 31 74 65 c272 238 313 324 337 702 12 201 10
220 -38 275 -26 30 -38 35 -73 35 -23 0 -46 -4 -51 -9z"/>
<path d="M2892 6064 c-53 -37 -70 -127 -47 -256 16 -93 50 -192 147 -436 34
-84 59 -155 56 -157 -3 -3 -43 -10 -90 -15 -146 -17 -239 -60 -404 -189 -80
-63 -81 -64 -70 -93 10 -28 13 -30 56 -24 25 3 185 22 355 41 171 19 319 36
329 38 14 1 39 -24 90 -90 39 -51 74 -92 78 -93 4 0 45 30 90 66 46 37 183
141 304 232 l222 166 -65 85 -64 86 -172 5 -172 6 175 2 175 1 34 -47 c19 -26
50 -66 69 -90 l34 -42 26 20 c15 11 75 54 134 96 59 41 109 78 111 82 2 4 -1
45 -7 92 l-11 84 -45 13 c-64 18 -114 63 -140 126 l-22 54 -102 -20 c-154 -30
-316 -28 -430 7 -96 29 -318 132 -461 214 -96 56 -142 65 -183 36z m373 -305
c99 -56 221 -125 272 -154 l92 -52 -22 -20 c-12 -11 -33 -26 -46 -33 -22 -11
-26 -10 -44 15 -39 53 -118 69 -174 35 -58 -35 -83 -127 -47 -178 14 -21 14
-23 -12 -34 -24 -11 -29 -10 -48 13 -43 50 -219 391 -224 434 -5 47 14 75 52
75 12 0 103 -46 201 -101z m181 -267 c42 -27 35 -95 -11 -112 -49 -19 -102 31
-84 79 6 14 16 29 22 33 15 10 59 10 73 0z"/>
<path d="M4228 5955 c-61 -34 -78 -130 -32 -184 63 -75 178 -52 213 42 15 38
-1 96 -34 127 -31 29 -108 37 -147 15z"/>
<path d="M3142 4953 c-18 -3 -169 -21 -335 -42 l-302 -37 -13 -39 c-35 -106
-153 -144 -228 -74 l-22 21 -59 -39 c-107 -72 -275 -162 -364 -194 -33 -12
-59 -25 -59 -29 0 -12 183 -30 302 -30 156 0 373 31 538 76 15 4 0 -11 -40
-41 -36 -26 -104 -86 -152 -133 l-87 -85 -65 -1 c-54 -1 -69 -5 -91 -26 -31
-28 -55 -78 -55 -113 0 -13 10 -44 23 -69 l23 -45 -23 -49 c-76 -168 -114
-365 -113 -592 0 -90 2 -168 6 -173 3 -5 24 14 47 43 47 61 191 207 256 261
41 34 43 39 33 62 -7 14 -12 46 -12 70 0 35 6 52 30 79 58 66 141 70 205 10
l28 -26 116 55 c137 65 266 108 412 136 125 24 349 44 396 35 18 -3 33 -2 33
3 0 12 -156 48 -294 69 -255 39 -584 5 -803 -83 -35 -14 -66 -23 -69 -21 -8 9
88 108 144 150 30 22 90 58 133 80 43 21 79 45 79 53 0 26 -12 45 -29 45 -14
0 -231 -53 -310 -76 -16 -5 -22 -4 -18 4 4 5 58 22 120 37 61 15 135 33 163
41 51 15 52 15 58 63 13 96 82 161 172 161 29 0 64 -5 78 -11 23 -11 31 -7 91
47 37 32 116 100 177 151 60 50 110 94 111 98 1 4 -27 47 -63 96 -71 96 -67
94 -168 82z m-833 -759 c20 -45 -20 -94 -69 -85 -26 5 -50 33 -50 60 0 34 10
48 40 59 32 12 64 -2 79 -34z"/>
<path d="M2312 4934 c-74 -51 -27 -158 63 -145 50 7 75 63 50 112 -24 46 -74
61 -113 33z"/>
<path d="M4612 4667 c-38 -40 -28 -98 20 -123 81 -42 154 47 97 120 -27 35
-86 36 -117 3z"/>
<path d="M2882 4409 c-38 -11 -72 -59 -72 -102 0 -88 101 -147 170 -100 40 28
49 45 50 96 0 41 -5 53 -29 78 -16 16 -36 29 -44 29 -9 0 -21 2 -29 4 -7 2
-28 0 -46 -5z"/>
<path d="M4624 4261 c-41 -25 -60 -72 -47 -116 l11 -34 -167 -173 c-91 -95
-201 -211 -244 -257 -43 -46 -79 -82 -81 -80 -9 12 -46 110 -46 122 0 8 10 22
21 33 31 27 59 93 59 140 0 61 -43 139 -93 168 -60 35 -106 41 -169 22 -164
-47 -192 -274 -44 -361 23 -14 54 -25 69 -25 32 0 28 7 93 -153 29 -73 57
-132 62 -132 11 0 122 131 337 395 86 107 173 211 192 232 34 35 37 36 89 31
49 -5 55 -4 83 25 51 51 39 137 -24 167 -43 20 -63 19 -101 -4z m-628 -295
c44 -44 46 -92 7 -136 -57 -63 -150 -42 -174 39 -10 34 -9 44 8 73 39 67 106
77 159 24z"/>
<path d="M2437 3730 c-33 -26 -41 -63 -23 -99 30 -56 103 -62 140 -9 24 34 19
66 -13 99 -34 34 -68 37 -104 9z"/>
<path d="M4384 3626 c-161 -75 -180 -329 -31 -425 35 -23 37 -27 31 -60 -9
-50 -10 -51 -62 -51 l-47 0 -83 -352 c-45 -194 -82 -359 -82 -366 0 -10 35
-12 156 -10 l156 3 33 133 c18 73 35 135 38 139 20 20 15 -44 -13 -162 -24
-104 -36 -138 -51 -146 -25 -13 -22 -57 4 -73 37 -23 73 29 43 63 -9 10 -14
20 -11 22 2 3 18 66 35 140 17 74 33 142 36 152 4 13 0 17 -19 17 l-25 0 14
61 c10 43 24 70 47 94 17 18 39 41 48 52 16 17 89 306 89 349 0 11 -5 25 -10
30 -7 7 -4 25 9 55 31 69 35 119 17 183 -43 146 -188 214 -322 152z m155 -104
c19 -10 43 -34 53 -53 63 -117 -59 -246 -169 -179 -46 27 -65 62 -65 116 0 55
22 91 73 116 43 23 66 23 108 0z m129 -304 c7 -9 0 -55 -24 -153 -19 -77 -36
-151 -39 -164 -6 -22 -7 -22 -24 13 -17 32 -17 41 -5 93 20 86 23 83 -56 83
-62 0 -70 2 -70 19 0 40 11 51 51 51 42 0 106 27 128 54 16 19 25 20 39 4z
m-126 -324 c14 -31 1 -57 -31 -62 -28 -4 -51 14 -51 42 0 50 62 65 82 20z
m-195 -56 c-3 -8 -6 -5 -6 6 -1 11 2 17 5 13 3 -3 4 -12 1 -19z m-65 -360
c-14 -14 -42 -3 -42 18 0 10 8 25 18 34 16 16 18 16 26 -12 6 -19 5 -33 -2
-40z"/>
<path d="M1447 3428 c-60 -94 -689 -1043 -699 -1055 -8 -10 25 -13 161 -13
l171 0 66 100 67 100 213 0 c117 0 215 -4 218 -8 3 -5 10 -40 16 -78 5 -38 12
-79 15 -92 l5 -22 207 2 206 3 66 97 66 98 216 0 217 0 11 -67 c7 -38 14 -83
17 -100 l6 -33 207 0 206 1 66 97 65 97 217 3 216 2 7 -37 c3 -21 11 -65 18
-98 l11 -60 168 -3 c105 -1 167 1 167 7 0 8 -147 912 -175 1079 l-6 32 -177 0
-177 0 -260 -395 c-143 -217 -263 -391 -266 -387 -6 8 -7 12 -80 460 l-52 322
-177 0 -177 0 -54 -82 c-249 -383 -470 -707 -474 -696 -3 7 -33 184 -68 393
l-62 380 -177 3 -177 2 -34 -52z m162 -620 l1 -28 -125 0 c-69 0 -125 2 -125
4 0 5 175 286 196 316 18 25 19 24 36 -120 9 -80 17 -157 17 -172z m981 295
c1 -10 9 -85 18 -167 13 -106 15 -149 7 -152 -6 -3 -63 -3 -127 -2 l-117 3
102 167 c56 92 105 167 110 168 4 0 7 -8 7 -17z m1025 -114 c8 -68 17 -143 20
-166 l5 -43 -126 0 c-115 0 -126 2 -120 17 11 28 198 324 202 320 2 -2 11 -60
19 -128z"/>
<path d="M4837 3293 c-20 -87 -56 -243 -81 -348 -91 -386 -136 -578 -136 -581
0 -2 61 -4 135 -4 l134 0 10 38 c14 52 121 510 121 517 0 3 4 5 8 5 4 0 8 -16
9 -35 2 -58 24 -428 28 -460 2 -16 4 -38 4 -48 1 -16 12 -17 117 -15 l115 3
152 282 c84 155 153 280 155 278 1 -1 -11 -58 -27 -126 -16 -68 -46 -193 -66
-277 -21 -84 -35 -155 -33 -157 2 -2 114 -7 249 -11 l246 -7 113 152 c62 84
116 149 121 144 4 -4 30 -71 57 -148 l48 -140 152 -3 c108 -2 152 1 152 9 0 9
-158 456 -184 519 -4 10 68 110 204 288 116 150 210 275 210 277 0 3 -64 5
-143 5 -168 0 -139 18 -272 -167 -48 -68 -90 -123 -94 -123 -3 0 -28 64 -56
143 l-50 142 -280 0 -279 0 -195 -342 c-107 -189 -197 -340 -200 -338 -5 6
-23 153 -51 435 -12 113 -23 215 -26 228 -4 22 -6 22 -168 22 l-163 0 -36
-157z m1212 -192 c34 -95 61 -180 59 -187 -4 -18 -319 -426 -324 -421 -3 2 11
69 30 148 19 79 60 252 91 384 68 292 65 282 75 264 4 -8 35 -92 69 -188z"/>
<path d="M2634 2029 c-67 -19 -119 -119 -100 -192 18 -72 86 -103 153 -71 56
28 83 75 83 145 0 50 -4 63 -27 88 -32 35 -65 44 -109 30z m65 -92 c13 -34 2
-75 -27 -97 -22 -18 -28 -19 -46 -6 -24 15 -30 37 -22 71 14 55 78 76 95 32z"/>
<path d="M3593 2025 c-36 -15 -53 -42 -53 -83 0 -29 20 -53 73 -86 23 -14 26
-20 16 -32 -10 -13 -14 -13 -29 1 -18 17 -66 20 -75 6 -9 -16 16 -58 42 -70
43 -20 82 -13 114 18 51 52 38 97 -46 155 -19 13 -24 21 -16 29 8 8 14 8 23
-1 18 -18 78 -15 78 4 0 28 -19 52 -51 63 -39 13 -37 13 -76 -4z"/>
<path d="M785 2008 c-3 -13 -13 -74 -23 -135 l-19 -113 36 0 37 0 17 123 c22
154 23 147 -13 147 -23 0 -31 -5 -35 -22z"/>
<path d="M885 1998 c-9 -56 -35 -228 -35 -233 0 -3 16 -5 35 -5 l34 0 7 60 c4
33 10 62 13 65 4 2 18 -25 31 -61 24 -63 25 -64 62 -64 21 0 38 3 38 8 0 4 9
61 20 127 11 66 20 123 20 128 0 4 -15 7 -34 7 l-34 0 -9 -60 c-4 -34 -12 -61
-17 -61 -5 0 -20 27 -34 60 -23 58 -26 61 -58 61 -30 0 -34 -3 -39 -32z"/>
<path d="M1130 2016 c0 -8 -3 -21 -6 -30 -5 -13 1 -16 25 -16 23 0 31 -5 31
-17 0 -20 -17 -135 -25 -170 -5 -20 -1 -23 29 -23 37 0 45 11 47 63 0 18 6 57
12 87 11 50 15 55 42 60 24 4 31 11 33 33 l3 27 -95 0 c-76 0 -96 -3 -96 -14z"/>
<path d="M1349 2028 c0 -2 -11 -63 -23 -135 l-22 -133 77 0 c74 0 77 1 81 25
7 32 2 35 -44 35 -21 0 -38 3 -38 8 1 19 18 31 50 34 31 3 35 6 35 33 0 27 -3
30 -30 30 -23 1 -30 5 -30 20 0 16 8 21 43 23 23 2 42 6 42 10 0 4 3 17 6 30
6 21 4 22 -70 22 -42 0 -76 -1 -77 -2z"/>
<path d="M1525 2008 c-4 -22 -35 -233 -35 -243 0 -3 16 -5 35 -5 31 0 35 3 36
28 0 15 4 36 8 46 6 16 10 10 21 -27 12 -46 14 -47 51 -47 22 0 39 1 39 3 0 2
-7 24 -16 50 -16 46 -16 47 11 69 37 32 45 98 16 127 -17 17 -33 21 -91 21
-64 0 -70 -2 -75 -22z m115 -61 c0 -19 -21 -37 -42 -37 -18 0 -25 29 -11 43
12 12 53 7 53 -6z"/>
<path d="M1745 2008 c-4 -22 -35 -233 -35 -243 0 -3 15 -5 34 -5 l34 0 7 60
c4 33 10 62 14 64 4 3 18 -24 31 -60 24 -63 25 -64 61 -64 l36 0 17 108 c9 59
19 119 22 135 5 25 3 27 -30 27 -34 0 -35 -1 -41 -47 -14 -101 -19 -101 -55
-10 -21 54 -24 57 -56 57 -27 0 -35 -5 -39 -22z"/>
<path d="M2026 1930 c-26 -54 -53 -115 -61 -135 l-15 -35 35 0 c24 0 37 6 45
20 8 15 21 20 50 20 33 0 40 -3 40 -20 0 -16 7 -20 38 -20 l38 0 -23 133 c-12
72 -22 133 -23 135 0 1 -17 2 -38 2 l-39 0 -47 -100z m83 -57 c1 -7 -8 -13
-19 -13 -23 0 -25 9 -8 46 l13 27 6 -24 c4 -13 7 -30 8 -36z"/>
<path d="M2240 2016 c0 -8 -3 -21 -6 -30 -5 -13 1 -16 25 -16 36 0 38 -8 17
-132 l-12 -78 33 0 c18 0 33 3 34 8 0 4 8 50 17 102 l17 95 33 3 c28 3 32 7
32 33 l0 29 -95 0 c-75 0 -95 -3 -95 -14z"/>
<path d="M2459 2028 c0 -2 -11 -63 -23 -136 l-22 -133 35 3 35 3 17 105 c26
154 25 160 -11 160 -16 0 -30 -1 -31 -2z"/>
<path d="M2820 2025 c0 -5 -26 -174 -35 -232 -6 -32 -5 -33 29 -33 34 0 35 1
41 48 12 87 18 90 47 20 24 -59 28 -63 61 -66 31 -3 37 0 41 20 5 21 36 233
36 243 0 3 -15 5 -34 5 -34 0 -34 -1 -41 -52 -12 -97 -16 -98 -44 -23 -26 68
-28 70 -64 73 -20 2 -37 1 -37 -3z"/>
<path d="M3083 1895 l-62 -135 39 0 c29 0 39 4 43 20 4 16 14 20 46 20 34 0
41 -3 41 -20 0 -16 7 -20 38 -20 l38 0 -20 135 -20 135 -41 0 -41 0 -61 -135z
m97 -11 c0 -17 -5 -24 -20 -24 -23 0 -24 1 -9 34 14 30 29 25 29 -10z"/>
<path d="M3326 2018 c-4 -14 -36 -238 -36 -250 0 -5 31 -8 69 -8 65 0 69 1 73
25 5 23 2 25 -28 25 -40 0 -40 1 -20 133 l13 87 -34 0 c-18 0 -35 -6 -37 -12z"/>
<path d="M3750 2000 c0 -25 4 -30 24 -30 14 0 27 -3 29 -7 3 -5 -1 -44 -9 -88
-19 -117 -19 -115 19 -115 l34 0 12 88 c17 121 18 122 51 122 26 0 39 18 40
53 0 4 -45 7 -100 7 l-100 0 0 -30z"/>
<path d="M3966 2003 c-17 -82 -26 -166 -20 -188 8 -33 49 -65 83 -65 32 0 86
32 101 60 12 23 40 158 40 197 0 21 -4 24 -32 21 l-32 -3 -13 -84 c-7 -46 -18
-90 -24 -98 -13 -15 -45 -17 -54 -3 -5 8 6 96 21 168 4 19 0 22 -30 22 -30 0
-35 -4 -40 -27z"/>
<path d="M4206 2018 c-5 -18 -36 -230 -36 -245 0 -22 129 -17 167 7 81 49 96
197 23 235 -36 19 -149 20 -154 3z m118 -74 c9 -8 16 -27 16 -40 0 -29 -50
-84 -76 -84 -14 0 -16 7 -10 53 3 28 6 60 6 70 0 22 42 23 64 1z"/>
<path d="M4450 2025 c0 -10 -31 -221 -35 -242 -5 -22 -3 -23 75 -23 l80 0 0
30 c0 28 -2 30 -41 30 -33 0 -40 3 -37 18 2 11 14 18 36 20 59 6 70 72 12 72
-23 0 -30 4 -30 20 0 17 7 20 45 20 43 0 45 1 45 30 l0 30 -75 0 c-41 0 -75
-2 -75 -5z"/>
<path d="M4614 1898 l-20 -133 30 -3 c35 -4 42 6 51 76 8 62 13 60 45 -20 23
-56 25 -58 60 -58 l36 0 17 118 c23 159 24 154 -15 150 -32 -3 -33 -4 -42 -65
-5 -35 -13 -63 -17 -63 -5 0 -9 6 -9 13 0 6 -11 36 -25 65 -22 48 -27 52 -58
52 l-34 0 -19 -132z"/>
<path d="M4877 2023 c-4 -3 -7 -17 -7 -30 0 -18 6 -23 24 -23 14 0 27 -3 29
-7 2 -5 -2 -46 -9 -93 -18 -115 -19 -110 20 -110 l34 0 12 88 c16 120 17 122
50 122 26 0 39 18 40 53 0 9 -184 10 -193 0z"/>
<path d="M5189 2003 c-40 -34 -59 -79 -59 -138 0 -57 12 -80 52 -101 55 -28
130 2 163 67 l16 29 -40 0 c-23 0 -44 -6 -51 -16 -8 -8 -25 -14 -39 -12 -21 2
-27 9 -29 34 -5 46 13 82 44 90 19 5 31 2 39 -10 8 -10 26 -16 50 -16 36 0 37
1 30 28 -12 49 -43 72 -96 72 -37 0 -55 -6 -80 -27z"/>
<path d="M5405 1998 c-9 -56 -35 -228 -35 -233 0 -3 16 -5 35 -5 34 0 34 1 41
50 l7 50 39 0 39 0 -7 -51 -7 -50 34 3 34 3 17 110 c24 159 25 155 -17 155
-31 0 -35 -3 -35 -27 0 -60 -10 -73 -50 -73 -31 0 -37 3 -35 18 17 83 17 82
-20 82 -31 0 -35 -3 -40 -32z"/>
<path d="M5714 2008 c-4 -13 -31 -74 -60 -135 l-53 -113 39 0 c30 0 40 5 45
20 5 15 15 20 45 20 29 0 39 -4 43 -20 4 -15 14 -20 42 -20 35 0 36 2 31 28
-3 15 -13 75 -22 135 l-17 107 -43 0 c-35 0 -44 -4 -50 -22z m46 -113 c0 -28
-4 -35 -20 -35 -24 0 -24 3 -5 40 20 39 25 38 25 -5z"/>
<path d="M5910 2023 c0 -5 -9 -60 -20 -123 -11 -63 -20 -121 -20 -127 0 -8 13
-13 34 -13 32 0 34 2 40 45 7 43 9 45 41 45 21 0 44 9 64 26 27 22 31 33 31
73 0 67 -18 81 -103 81 -37 0 -67 -3 -67 -7z m98 -65 c16 -16 -3 -48 -28 -48
-22 0 -23 3 -14 38 7 24 23 29 42 10z"/>
<path d="M6106 2014 c-13 -33 -6 -44 24 -44 34 0 34 -2 20 -86 -24 -137 -25
-124 13 -124 33 0 35 2 41 43 26 168 25 166 59 169 27 2 33 8 35 31 l3 27 -94
0 c-77 0 -96 -3 -101 -16z"/>
<path d="M6320 2020 c0 -16 -30 -212 -36 -237 -6 -23 -5 -23 75 -23 l81 0 0
30 c0 28 -2 30 -41 30 -33 0 -40 3 -37 18 2 12 14 18 40 20 29 2 37 8 42 28 9
35 -1 47 -36 42 -25 -4 -29 -2 -26 16 2 17 11 22 44 24 38 3 42 6 46 33 l5 29
-79 0 c-46 0 -78 -4 -78 -10z"/>
<path d="M6487 1913 c-23 -159 -24 -153 18 -153 33 0 35 2 35 33 0 54 15 61
28 12 12 -44 13 -45 51 -45 l39 0 -16 51 c-15 48 -15 51 1 60 21 12 47 61 47
87 0 11 -9 31 -21 46 -19 24 -27 26 -93 26 l-72 0 -17 -117z m128 37 c9 -15
-14 -40 -36 -40 -14 0 -19 7 -19 25 0 20 5 25 24 25 14 0 28 -5 31 -10z"/>
</g>
</svg>
